<?xml version="1.0" standalone="no"?><!DOCTYPE svg PUBLIC "-//W3C//DTD SVG 1.1//EN" "http://www.w3.org/Graphics/SVG/1.1/DTD/svg11.dtd"><svg t="1587808211147" class="icon" viewBox="0 0 1024 1024" version="1.1" xmlns="http://www.w3.org/2000/svg" p-id="3237" xmlns:xlink="http://www.w3.org/1999/xlink" width="200" height="200"><defs><style type="text/css"></style></defs><path d="M965.153288 0.032008L964.977244 0H59.374844l-0.176044 0.032008C26.486622 0.144036 0 25.814454 0 57.51838v907.12278a59.374844 59.374844 0 0 0 59.374844 59.35884h905.6024a59.374844 59.374844 0 0 0 59.374844-59.35884V57.502376c0-31.687922-26.486622-57.35834-59.1988-57.470368z" fill="#CCCCCC" p-id="3238"></path><path d="M928.328082 191.951988h-864.216054V928.12003c0 17.668417 14.339585 32.024006 32.008002 32.024006h832.208052a32.008002 32.008002 0 0 0 32.008002-32.024006V191.951988h-32.008002z" fill="#FFFFFF" p-id="3239"></path><path d="M512.224056 362.426607a143.667917 143.667917 0 0 1-112.028007 53.613403 143.395849 143.395849 0 0 1-80.020005-24.294074V608.632158c0 88.59815 127.775944 191.471868 190.847712 191.471868 67.216804 0 193.248312-102.873718 193.248312-191.471868V391.745936a143.395849 143.395849 0 0 1-80.020005 24.294074 143.667917 143.667917 0 0 1-112.028007-53.613403z" fill="#ED7161" p-id="3240"></path><path d="M599.077769 628.173043l-43.450862-36.28107 43.450862-36.265066c11.938985-9.970493 11.938985-26.134534 0-36.137035-11.938985-9.954489-31.303826-9.954489-43.258814 0l-43.450863 36.297075-44.395099-37.049263c-11.986997-10.050513-31.431858-10.050513-43.418854 0-12.003001 9.970493-12.003001 26.214554 0 36.249063l44.395098 37.049262-43.498874 36.329082c-11.938985 9.970493-11.938985 26.134534 0 36.073019 11.954989 9.986497 31.31983 9.986497 43.258814 0l43.482871-36.297075 43.450863 36.281071c11.986997 10.034509 31.431858 10.034509 43.418854 0 12.003001-10.002501 12.003001-26.246562 0.016004-36.249063zM736.28007 63.935984l-0.16004 0.016004H96.12003a32.008002 32.008002 0 0 0 0 64.016004h640.16004a32.008002 32.008002 0 0 0 0-64.032008z m96.024006 0a32.008002 32.008002 0 1 0 0.032008 64.048012 32.008002 32.008002 0 0 0-0.032008-64.048012z m96.024006 0a32.008002 32.008002 0 1 0 0.032008 64.048012 32.008002 32.008002 0 0 0-0.032008-64.048012z" fill="#FFFFFF" p-id="3241"></path></svg>