<?xml version="1.0" standalone="no"?><!DOCTYPE svg PUBLIC "-//W3C//DTD SVG 1.1//EN" "http://www.w3.org/Graphics/SVG/1.1/DTD/svg11.dtd"><svg t="1587807724016" class="icon" viewBox="0 0 1024 1024" version="1.1" xmlns="http://www.w3.org/2000/svg" p-id="3094" xmlns:xlink="http://www.w3.org/1999/xlink" width="200" height="200"><defs><style type="text/css"></style></defs><path d="M965.153288 0.032008L964.977244 0H59.374844l-0.176044 0.032008C26.486622 0.144036 0 25.814454 0 57.51838v907.12278a59.374844 59.374844 0 0 0 59.374844 59.35884h905.6024a59.374844 59.374844 0 0 0 59.374844-59.35884V57.502376c0-31.687922-26.486622-57.35834-59.1988-57.470368z" fill="#CCCCCC" p-id="3095"></path><path d="M928.328082 191.951988h-864.216054V928.12003c0 17.668417 14.339585 32.024006 32.008002 32.024006h832.208052a32.008002 32.008002 0 0 0 32.008002-32.024006V191.951988h-32.008002z" fill="#FFFFFF" p-id="3096"></path><path d="M512.224056 576.064016c-88.390098 0-160.04001 71.649912-160.04001 160.04001a32.008002 32.008002 0 0 0 32.008002 31.991998h256.064016a32.008002 32.008002 0 0 0 32.008002-31.991998c0-88.390098-71.665916-160.04001-160.04001-160.04001z" fill="#4D4D4D" p-id="3097"></path><path d="M256.16004 480.024006a64.016004 48.012003 90 1 0 96.024006 0 64.016004 48.012003 90 1 0-96.024006 0Z" fill="#4D4D4D" p-id="3098"></path><path d="M672.264066 480.024006a64.016004 48.012003 90 1 0 96.024006 0 64.016004 48.012003 90 1 0-96.024006 0Z" fill="#4D4D4D" p-id="3099"></path><path d="M736.28007 63.935984l-0.16004 0.016004H96.12003a32.008002 32.008002 0 0 0 0 64.016004h640.16004a32.008002 32.008002 0 0 0 0-64.032008z m96.024006 0a32.008002 32.008002 0 1 0 0.032008 64.048012 32.008002 32.008002 0 0 0-0.032008-64.048012z m96.024006 0a32.008002 32.008002 0 1 0 0.032008 64.048012 32.008002 32.008002 0 0 0-0.032008-64.048012z" fill="#FFFFFF" p-id="3100"></path></svg>