<?xml version="1.0" standalone="no"?><!DOCTYPE svg PUBLIC "-//W3C//DTD SVG 1.1//EN" "http://www.w3.org/Graphics/SVG/1.1/DTD/svg11.dtd"><svg t="1587807680940" class="icon" viewBox="0 0 1087 1024" version="1.1" xmlns="http://www.w3.org/2000/svg" p-id="2805" xmlns:xlink="http://www.w3.org/1999/xlink" width="212.3046875" height="200"><defs><style type="text/css"></style></defs><path d="M996.420254 0.031977L996.260371 0H91.548769l-0.175871 0.031977C58.692897 0.127906 32.232329 25.821038 32.232329 57.525755V964.635596a59.348416 59.348416 0 0 0 59.31644 59.364404h904.711602a59.348416 59.348416 0 0 0 59.31644-59.364404V57.525755c-0.015988-31.704717-26.476556-57.397848-59.156557-57.493778z" fill="#CCCCCC" p-id="2806"></path><path d="M959.631271 191.955033h-863.365966V928.118413c0 17.683014 14.32548 32.024482 31.976517 32.024482h831.389449c17.651038 0 31.976517-14.32548 31.976517-32.024482V191.955033h-31.976517z" fill="#FFFFFF" p-id="2807"></path><path d="M352.077443 511.944041a31.976517 31.976517 0 0 0-31.976517 31.976517v255.812138a31.976517 31.976517 0 0 0 63.953034 0v-255.812138c0-17.683014-14.309491-31.976517-31.976517-31.976517zM735.79565 511.944041a31.976517 31.976517 0 0 0-31.976517 31.976517v255.812138a31.976517 31.976517 0 0 0 63.953034 0v-255.812138c0-17.683014-14.309491-31.976517-31.976517-31.976517z" fill="#CCCCCC" p-id="2808"></path><path d="M320.100926 671.826627h447.671241v63.953035h-447.671241z" fill="#CCCCCC" p-id="2809"></path><path d="M799.748685 384.037972h-511.624276a31.976517 31.976517 0 0 0-31.976518 31.976517v95.929552a31.976517 31.976517 0 0 0 31.976518 31.976517h511.624276a31.976517 31.976517 0 0 0 31.976517-31.976517v-95.929552c0-17.683014-14.309491-31.976517-31.976517-31.976517z" fill="#4D4D4D" p-id="2810"></path><path d="M256.147891 474.467563v37.476478a31.976517 31.976517 0 0 0 31.976518 31.976517h69.421019l159.882586-159.882586H346.59347l-90.445579 90.429591z m543.600794-90.429591h-101.429513l-159.882586 159.882586h170.86652l122.422096-122.422096v-5.483973c0-17.683014-14.309491-31.976517-31.976517-31.976517z" fill="#FFCC66" p-id="2811"></path><path d="M767.772167 63.921058c-1.167143 0-2.270333 0.223836-3.405499 0.335753H128.241822a31.976517 31.976517 0 0 0 0 63.953035h639.530345a31.976517 31.976517 0 0 0 31.976518-31.976517l-0.015989-0.143895 0.015989-0.143894a31.992506 31.992506 0 0 0-31.976518-32.024482z m95.929552 0a32.008494 32.008494 0 0 0 0 64.032976 31.976517 31.976517 0 0 0 31.976517-31.992506 32.008494 32.008494 0 0 0-31.976517-32.04047z m95.929552 0a32.008494 32.008494 0 0 0 0 64.032976 31.976517 31.976517 0 0 0 31.976517-31.992506 32.008494 32.008494 0 0 0-31.976517-32.04047z" fill="#FFFFFF" p-id="2812"></path></svg>