<?xml version="1.0" standalone="no"?><!DOCTYPE svg PUBLIC "-//W3C//DTD SVG 1.1//EN" "http://www.w3.org/Graphics/SVG/1.1/DTD/svg11.dtd"><svg t="1587807662867" class="icon" viewBox="0 0 1024 1024" version="1.1" xmlns="http://www.w3.org/2000/svg" p-id="2663" xmlns:xlink="http://www.w3.org/1999/xlink" width="200" height="200"><defs><style type="text/css"></style></defs><path d="M965.138204 0.048011C965.074189 0.048011 965.026178 0 964.962163 0H59.373916c-0.064015 0-0.112026 0.048011-0.176041 0.048011C26.486208 0.12803 0 25.81405 0 57.517481v907.108603a59.373916 59.373916 0 0 0 59.373916 59.357912h905.588247a59.373916 59.373916 0 0 0 59.373916-59.357912V57.501477c0-31.687427-26.486208-57.373447-59.197875-57.453466z" fill="#CCCCCC" p-id="2664"></path><path d="M928.313573 191.932984h-864.202547v736.172541a32.007502 32.007502 0 0 0 32.007502 32.007501h832.195045a32.007502 32.007502 0 0 0 32.007502-32.007501v-736.172541h-32.007502z" fill="#FFFFFF" p-id="2665"></path><path d="M704.261061 608.030507h-384.090021a32.007502 32.007502 0 0 0 0 64.031007h192.045011v48.011253a112.026256 112.026256 0 0 0 224.052512 0v-112.04226h-32.007502z m-80.018754 160.021505c-26.518215 0-48.011253-21.46103-48.011253-47.979245v-48.011253h96.022505v48.011253a47.995249 47.995249 0 0 1-48.011252 47.979245zM345.264921 432.549379l29.830992-29.830992a29.39889 29.39889 0 0 0 0-41.657763 29.414894 29.414894 0 0 0-41.657763 0l-29.830992 29.830991-28.950785-28.950785a29.318872 29.318872 0 0 0-41.497726 0 29.318872 29.318872 0 0 0 0 41.497726l28.950785 28.950785-28.918778 28.918778a29.462905 29.462905 0 0 0 41.673767 41.673767l28.902774-28.918777 28.902775 28.918777a29.334875 29.334875 0 1 0 41.513729-41.513729l-28.918778-28.918778zM761.362444 432.549379l29.830992-29.830992a29.39889 29.39889 0 0 0 0-41.657763 29.414894 29.414894 0 0 0-41.657764 0l-29.830991 29.830991-28.950786-28.950785a29.318872 29.318872 0 0 0-41.497726 0 29.318872 29.318872 0 0 0 0 41.497726l28.950786 28.950785-28.918778 28.918778a29.462905 29.462905 0 0 0 41.673767 41.673767l28.902774-28.918777 28.902774 28.918777a29.334875 29.334875 0 1 0 41.51373-41.513729l-28.918778-28.918778z" fill="#ED7161" p-id="2666"></path><path d="M736.268563 63.902977l-0.320075 0.032008H96.118528a32.007502 32.007502 0 0 0 0 64.015003h640.150035a32.007502 32.007502 0 0 0 32.007502-32.007501v-0.016004a32.007502 32.007502 0 0 0-32.007502-32.023506z m96.022505 0a32.007502 32.007502 0 1 0 0.032008 64.047011 32.007502 32.007502 0 0 0-0.032008-64.047011z m96.022505 0a32.007502 32.007502 0 1 0 0.032008 64.047011 32.007502 32.007502 0 0 0-0.032008-64.047011z" fill="#FFFFFF" p-id="2667"></path></svg>